<svg width="1172" height="274" viewBox="0 0 1172 274" fill="none" xmlns="http://www.w3.org/2000/svg">
<path d="M459.739 87.7572C458.046 54.548 430.577 28.0262 396.953 28.0262C362.241 28.0262 334 56.2711 334 90.9796V184.047C334 218.766 362.241 247 396.953 247C431.386 247 459.415 219.206 459.862 184.867C459.866 184.729 459.903 184.599 459.903 184.457C459.903 184.408 459.888 184.364 459.888 184.323C459.888 184.226 459.903 184.14 459.903 184.047H459.862C459.642 175.207 452.44 168.102 443.541 168.102C434.646 168.102 427.444 175.207 427.22 184.047H427.071C427.071 200.659 413.562 214.171 396.953 214.171C380.345 214.171 366.832 200.659 366.832 184.047V90.9796C366.832 74.3788 380.345 60.8661 396.953 60.8661C413.562 60.8661 427.071 74.3788 427.071 90.9796H427.339C428.16 99.2483 435.06 105.738 443.541 105.738C452.03 105.738 458.922 99.2483 459.743 90.9796H459.903C459.903 90.6216 459.855 90.2747 459.847 89.9129C459.855 89.7302 459.903 89.5586 459.903 89.3796C459.903 88.8239 459.795 88.3017 459.739 87.7572Z" fill="white"/>
<path d="M503.876 27.5464C494.798 27.5464 487.451 34.9051 487.451 43.972C487.451 53.0426 494.798 60.3938 503.876 60.3938C512.947 60.3938 520.302 53.0426 520.302 43.972C520.302 34.9051 512.947 27.5464 503.876 27.5464Z" fill="white"/>
<path d="M503.876 78.3489C494.798 78.3489 487.451 85.7076 487.451 94.767C487.451 95.1064 487.529 95.4234 487.548 95.7591H487.451V230.08H487.514C487.514 239.113 494.843 246.439 503.876 246.439C512.917 246.439 520.239 239.113 520.239 230.08H520.28V95.7591H520.205C520.224 95.4234 520.302 95.1064 520.302 94.767C520.302 85.7076 512.947 78.3489 503.876 78.3489Z" fill="white"/>
<path d="M607.514 27C572.802 27 544.561 55.2413 544.561 89.9535V229.533V229.541C544.561 238.574 551.89 245.892 560.923 245.892C569.956 245.892 577.285 238.574 577.285 229.541L577.401 229.533V89.9535C577.401 73.3526 590.906 59.84 607.514 59.84C624.119 59.84 637.632 73.3526 637.632 89.9535C637.632 106.562 624.119 120.074 607.514 120.074V120.194C598.772 120.533 591.779 127.676 591.779 136.485C591.779 145.306 598.772 152.441 607.514 152.78V152.899V152.907C624.119 152.907 637.632 166.42 637.632 183.02H637.729V229.533V229.541C637.729 238.574 645.054 245.892 654.087 245.892C663.12 245.892 670.449 238.574 670.449 229.541V229.533V183.02H670.464C670.464 164.607 662.516 148.01 649.861 136.485C662.516 124.964 670.464 108.374 670.464 89.9535C670.464 55.2413 642.23 27 607.514 27Z" fill="white"/>
<path d="M1031.01 150.845C1058.11 139.641 1084.9 119.84 1084.9 90.3979C1084.9 55.6932 1056.67 27.4519 1021.96 27.4519C987.249 27.4519 959.004 55.6932 959.004 90.3979H959.041C959.037 90.5247 959.004 90.6404 959.004 90.7709C959.004 99.8079 966.325 107.129 975.366 107.129C984.399 107.129 991.728 99.8079 991.728 90.7709C991.728 90.6404 991.695 90.5247 991.691 90.3979H991.836C991.836 73.7971 1005.35 60.2844 1021.96 60.2844C1038.56 60.2844 1052.07 73.7971 1052.07 90.3979C1052.07 107.006 1034.68 119.724 1015.69 127.091C979.264 143.859 959.004 175.517 959.004 213.209V227.624L959.153 227.781C959.108 228.273 959.004 228.747 959.004 229.247C959.004 238.28 966.333 245.609 975.366 245.609C976.481 245.609 977.567 245.493 978.618 245.281H1068.81V245.076C1077.47 244.9 1084.44 237.851 1084.44 229.146C1084.44 220.441 1077.47 213.396 1068.81 213.22V213.209H1068.7C1068.63 213.209 1068.56 213.187 1068.49 213.187C1068.41 213.187 1068.34 213.209 1068.27 213.209H991.486C991.486 177.971 1008.67 160.076 1031.01 150.845Z" fill="#DF3539"/>
<path d="M1108.2 27.3068V27.7879C1107.62 27.7245 1107.06 27.6126 1106.47 27.6126C1097.44 27.6126 1090.11 34.9415 1090.11 43.9748C1090.11 53.0155 1097.44 60.3332 1106.47 60.3332C1107.12 60.3332 1107.72 60.2176 1108.35 60.1467C1124.89 60.2288 1138.32 73.7004 1138.32 90.2602V230.079H1138.45C1138.6 238.989 1145.85 246.18 1154.79 246.18C1163.74 246.18 1170.98 238.989 1171.13 230.079H1171.15V90.2602C1171.15 55.548 1142.92 27.3068 1108.2 27.3068Z" fill="#DF3539"/>
<path d="M938.791 89.8006C938.691 55.1854 910.494 27.0448 875.849 27.0448C841.137 27.0448 812.896 55.2861 812.896 89.9908C812.896 124.707 841.137 152.944 875.849 152.944C892.457 152.944 905.97 166.457 905.97 183.065C905.97 199.674 892.457 213.186 875.849 213.186C859.241 213.186 845.728 199.674 845.728 183.065H845.575C845.579 182.912 845.62 182.774 845.62 182.621C845.62 173.588 838.291 166.259 829.258 166.259C820.217 166.259 812.896 173.588 812.896 182.621C812.896 182.774 812.937 182.912 812.94 183.065H812.896C812.896 217.777 841.137 246.019 875.849 246.019C910.561 246.019 938.802 217.777 938.802 183.065C938.802 148.353 910.561 120.112 875.849 120.112C859.241 120.112 845.728 106.599 845.728 89.9908C845.728 73.39 859.241 59.8773 875.849 59.8773C892.457 59.8773 905.97 73.39 905.97 89.9908H906.089C906.142 98.9868 913.433 106.256 922.44 106.256C931.44 106.256 938.739 98.9868 938.791 89.9908H938.802C938.802 89.9684 938.799 89.9461 938.799 89.9274C938.799 89.9162 938.802 89.9051 938.802 89.8939C938.802 89.864 938.791 89.8342 938.791 89.8006Z" fill="white"/>
<path d="M755.297 59.1182H792.139C792.623 59.163 793.09 59.2637 793.586 59.2637C802.421 59.2637 809.59 52.0952 809.59 43.2596C809.59 34.6179 802.716 27.6173 794.145 27.3152V27.0429H755.297C725.344 27.0429 700.97 51.4127 700.97 81.3658V120.513C692.433 120.86 685.604 127.838 685.604 136.45C685.604 145.065 692.433 152.043 700.97 152.39V191.615C700.97 221.572 725.344 245.938 755.297 245.938H792.791C793.06 245.953 793.31 246.017 793.586 246.017C802.421 246.017 809.59 238.845 809.59 230.005C809.59 221.363 802.716 214.363 794.145 214.061V213.863H755.297C743.03 213.863 733.049 203.882 733.049 191.615V152.536H774.419V152.428C774.523 152.428 774.62 152.454 774.725 152.454C783.56 152.454 790.729 145.289 790.729 136.45C790.729 127.614 783.56 120.446 774.725 120.446C774.62 120.446 774.523 120.475 774.419 120.475V120.46H733.049V81.3658C733.049 69.0989 743.03 59.1182 755.297 59.1182Z" fill="white"/>
<path d="M186.984 120.909L116.094 80.0093C110.169 76.5766 102.862 76.5766 96.9405 80.0093C91.0054 83.4282 87.3602 89.7525 87.3602 96.5834V178.409C87.3602 185.244 91.0054 191.565 96.9405 194.987C99.8994 196.696 103.203 197.558 106.517 197.558C109.821 197.558 113.135 196.696 116.094 194.987L186.984 154.084C192.919 150.658 196.56 144.334 196.56 137.507C196.56 130.655 192.919 124.341 186.984 120.909Z" fill="#F8F8F8"/>
<path d="M128.574 213.381C122.189 217.06 114.923 219.005 107.577 219.005C100.245 219.005 92.9942 217.06 86.5543 213.362C73.594 205.884 65.5313 191.93 65.5313 176.96V97.0428C65.5313 88.3466 68.3161 80.0498 73.1142 73.1127L40.1253 40.1271C-13.3751 93.6317 -13.3751 180.372 40.1253 233.873C93.6226 287.375 180.375 287.375 233.864 233.873L182.334 182.34L128.574 213.381Z" fill="#B13538"/>
<path d="M65.5311 176.959C65.5311 191.93 73.5938 205.883 86.5541 213.362C92.994 217.06 100.245 219.005 107.577 219.005C114.923 219.005 122.189 217.06 128.574 213.38L182.334 182.34L165.247 165.255L116.926 193.154C114.046 194.823 110.808 195.661 107.577 195.661C104.342 195.661 101.122 194.823 98.2277 193.154C92.4383 189.81 88.8742 183.633 88.8742 176.965V97.0453C88.8742 94.6623 89.3465 92.3523 90.2017 90.2002L73.114 73.1125C68.316 80.0496 65.5311 88.3465 65.5311 97.0426V176.959Z" fill="#D28C77"/>
<path d="M233.864 40.1266C180.375 -13.372 93.6225 -13.3795 40.1252 40.1266L73.1141 73.1122C76.591 68.0977 81.0938 63.7775 86.5175 60.6561C92.9137 56.9497 100.19 54.9908 107.577 54.9908C114.967 54.9908 122.248 56.9497 128.593 60.634L197.819 100.598C210.769 108.105 218.81 122.053 218.81 137.009C218.81 151.969 210.762 165.917 197.787 173.412L182.334 182.339L233.864 233.873C287.379 180.371 287.379 93.6312 233.864 40.1266Z" fill="#DF3539"/>
<path d="M98.2279 80.8583C104.013 77.4988 111.144 77.4988 116.926 80.8583L186.121 120.796C191.91 124.158 195.47 130.321 195.47 137.016C195.47 143.68 191.91 149.853 186.121 153.201L165.247 165.255L182.335 182.34L197.787 173.413C210.762 165.917 218.81 151.97 218.81 137.009C218.81 122.053 210.769 108.106 197.82 100.598L128.593 60.6346C122.248 56.9503 114.968 54.9914 107.577 54.9914C100.19 54.9914 92.9138 56.9503 86.5177 60.6567C81.0939 63.7781 76.5911 68.0983 73.1143 73.1128L90.2019 90.2005C91.7296 86.3294 94.5145 83.0002 98.2279 80.8583Z" fill="#EE977E"/>
</svg>
